
<svg width="32" height="32" viewBox="0 0 32 32" fill="none" xmlns="http://www.w3.org/2000/svg">
  <rect width="32" height="32" rx="6" fill="#0f2137"/>
  <path fill="#FFFFFF" d="M16 3C9.37258 3 4 8.37258 4 15C4 20.0589 7.43808 24.3667 12.2078 25.9563C12.8051 26.0676 13.0195 25.7032 13.0195 25.3854C13.0195 25.101 13.0107 24.3877 13.0046 23.5135C9.8122 24.1958 9.15739 22.2807 9.15739 22.2807C8.62031 20.9974 7.845 20.6785 7.845 20.6785C6.74621 19.9856 7.92706 19.998 7.92706 19.998C9.1356 20.0886 9.76402 21.2637 9.76402 21.2637C10.8408 23.1091 12.5612 22.602 13.2588 22.3045C13.3663 21.5487 13.6765 21.0365 14.0273 20.7591C10.991 20.4648 7.84104 19.3332 7.84104 13.8328C7.84104 12.2853 8.41111 10.9828 9.34282 9.96704C9.2091 9.67171 8.7287 8.2919 9.45671 6.39829C9.45671 6.39829 10.6622 6.05994 12.9888 7.60827C13.988 7.32827 15.0552 7.19484 16.1223 7.18992C17.1893 7.19484 18.2565 7.32827 19.2557 7.60827C21.5822 6.05994 22.7877 6.39829 22.7877 6.39829C23.5157 8.2919 23.0353 9.67171 22.9016 9.96704C23.8333 10.9828 24.4034 12.2853 24.4034 13.8328C24.4034 19.3434 21.246 20.4608 18.1985 20.7482C18.6574 21.1137 19.0619 21.8391 19.0619 22.9032C19.0619 24.3877 19.0528 25.4815 19.0528 25.3854C19.0528 25.7032 19.2673 26.0676 19.8646 25.9563C24.6343 24.3667 28.0724 20.0589 28.0724 15C28.0724 8.37258 22.6274 3 16 3Z"/>
</svg>
