<?xml version="1.0" encoding="UTF-8"?>
<svg version="1.1" viewBox="0 0 2000 2000" width="500" height="500" xmlns="http://www.w3.org/2000/svg">
<path transform="translate(0)" d="m0 0h2e3v2e3h-2e3z" fill="#fff"/>
<path transform="translate(1176,952)" d="m0 0h12l10 4 8 7 5 7 5 15 1 7v24l-3 14-4 10-6 8-9 6-6 2h-14l-10-4-9-9-5-10-3-11-1-6v-25l4-16 7-12 8-7z" fill="#fff"/>
<path transform="translate(660,948)" d="m0 0h54l13 3 10 5 7 8 3 9v12l-4 9-6 7-10 5-6 1 5 10 12 20 8 11 8 6 6 3v4h-17l-7-3-5-4-9-12-17-29-3-4-10-1v25l-1 27h-15l-1-2-1-99-2-4-12-4z" fill="#050B51"/>
<path transform="translate(1244,948)" d="m0 0h53l14 3 10 5 7 8 3 9v12l-4 9-5 6-8 5-9 2 5 10 12 20 9 12 9 6 5 3-1 3h-17l-7-3-5-4-9-12-17-29-3-4-10-1v25l-1 27h-15l-1-2-1-99-2-4-12-4z" fill="#050B51"/>
<path transform="translate(1171,945)" d="m0 0h21l13 4 10 7 7 7 8 14 4 13 1 6v16l-4 17-6 12-9 10-8 6-12 5-4 1h-20l-12-4-10-6-8-8-6-10-5-13-2-13v-10l2-13 5-13 7-11 8-8 11-6zm5 7-10 4-8 7-7 12-4 16v25l3 14 4 9 4 6 7 7 10 4h14l10-4 6-5 6-9 5-15 1-7v-24l-3-14-4-9-4-6-8-7-10-4z" fill="#050B51"/>
<path transform="translate(964,945)" d="m0 0h21l12 3 8 4 6 5 4 7 1 4v16h-4l-5-15-6-8-5-4-11-4h-15l-11 4-9 7-7 11-3 9-1 6v27l3 13 5 10 7 8 12 6 4 1h16l13-5 10-9 7-8h3l-1 6-6 9h-2v2h-2v2l-11 7-12 4h-23l-12-4-11-7-9-10-7-15-3-13v-15l3-15 4-9 6-10 7-8 10-7 10-4z" fill="#050B51"/>
<path transform="translate(754,946)" d="m0 0 13 1 10 5 7 9 9 19 14 33 8 19h2l15-35 17-41 4-8h8l-1 6-17 39-24 56-6 13-4-1-13-30-15-36-11-27-8-13-10-5v-3z" fill="#050B51"/>
<path transform="translate(1038,948)" d="m0 0h82l1 1v5l-1 1-13 1h-24v103l-1 1h-15v-104h-12l-14 1-5 4-3 5-2 9h-3l-1-2v-13l3-7 4-4z" fill="#050B51"/>
<path transform="translate(880,948)" d="m0 0h15l1 1v89l1 11 3 5 11 3-1 3h-21l-6-3-3-7z" fill="#050B51"/>
<path transform="translate(1277,955)" d="m0 0h17l9 4 7 6 3 7v14l-5 8h-2v2l-10 5-5 1h-10l-5-1-1-6v-30l1-9z" fill="#fff"/>
<path transform="translate(693,955)" d="m0 0h17l9 4 7 6 3 7v14l-5 8h-2v2l-10 5-5 1h-10l-5-1-1-4v-14l1-27z" fill="#fff"/>
</svg>
